<?xml version="1.0" encoding="UTF-8" standalone="no"?>
<svg
   viewBox="0 0 42 42"
   fill="none"
   version="1.1"
   id="svg2"
   sodipodi:docname="logo.svg"
   width="42"
   height="42"
   inkscape:version="1.4.2 (2aeb623e1d, 2025-05-12)"
   xmlns:inkscape="http://www.inkscape.org/namespaces/inkscape"
   xmlns:sodipodi="http://sodipodi.sourceforge.net/DTD/sodipodi-0.dtd"
   xmlns="http://www.w3.org/2000/svg"
   xmlns:svg="http://www.w3.org/2000/svg">
  <sodipodi:namedview
     id="namedview2"
     pagecolor="#ffffff"
     bordercolor="#666666"
     borderopacity="1.0"
     inkscape:showpageshadow="2"
     inkscape:pageopacity="0.0"
     inkscape:pagecheckerboard="0"
     inkscape:deskcolor="#d1d1d1"
     inkscape:zoom="11.313709"
     inkscape:cx="16.926369"
     inkscape:cy="10.120466"
     inkscape:window-width="1920"
     inkscape:window-height="1016"
     inkscape:window-x="0"
     inkscape:window-y="27"
     inkscape:window-maximized="1"
     inkscape:current-layer="svg2" />
  <defs
     id="defs2">
    <linearGradient
       id="%%GRADIENT_ID%%"
       x1="33.999001"
       x2="1"
       y1="16.181"
       y2="16.181"
       gradientUnits="userSpaceOnUse">
      <stop
         stop-color="%%GRADIENT_TO%%"
         id="stop1" />
      <stop
         offset="1"
         stop-color="%%GRADIENT_FROM%%"
         id="stop2" />
    </linearGradient>
  </defs>
  <path
     id="rect2"
     style="baseline-shift:baseline;display:inline;overflow:visible;opacity:1;vector-effect:none;fill:#000000;fill-opacity:0.984314;stroke-linecap:round;stroke-linejoin:round;enable-background:accumulate;stop-color:#000000;stop-opacity:1"
     d="m 8.937506,1.5624795 c -0.690327,6.9e-5 -1.249931,0.5596727 -1.25,1.25 v 3.5742188 h 2.5 V 4.0624795 h 27.5 V 31.56248 h -3.375 V 9.1874795 c -6.9e-5,-0.6903273 -0.559673,-1.249931 -1.25,-1.25 h -30 c -0.6903273,6.9e-5 -1.249931,0.5596727 -1.25,1.25 V 23.681621 h 2.5 V 10.437479 h 27.5 V 31.56248 h -19.5625 -2.0625 l -0.4980469,0.0039 v -0.002 H 8.937506 c -0.3853338,0 -0.7314937,0.174598 -0.9609375,0.449219 l -0.00781,-0.0078 -5.6777344,6.220703 c -0.2848833,0.224566 -0.471698,0.571022 -0.4785181,0.960978 -3.63e-5,0.0021 2.62e-5,0.0038 0,0.0059 0.00328,0.687586 0.5616598,1.244072 1.25,1.244141 h 30 c 0.690327,-6.9e-5 1.249931,-0.559673 1.25,-1.25 v -5.125 h 4.625 c 0.690327,-6.9e-5 1.249931,-0.559673 1.25,-1.25 V 2.8125205 c -6.9e-5,-0.6903273 -0.559673,-1.249931 -1.25,-1.25 z m -1.25,10.2675785 0,16.290511 h 2.5 l 0,-16.290511 z M 9.4765685,34.06248 H 31.812506 v 3.875 H 5.9414122 Z"
     sodipodi:nodetypes="cccccccccccccccccccccscccscccccccccccccccccccc" />
</svg>
